<svg width="31" height="30" viewBox="0 0 31 30" fill="none" xmlns="http://www.w3.org/2000/svg">
<path d="M5.16669 22.4096C5.16669 21.0889 5.71103 19.8222 6.67997 18.8883C7.64891 17.9544 8.96307 17.4297 10.3334 17.4297H20.6667C22.037 17.4297 23.3511 17.9544 24.3201 18.8883C25.289 19.8222 25.8334 21.0889 25.8334 22.4096C25.8334 23.07 25.5612 23.7033 25.0767 24.1703C24.5922 24.6373 23.9352 24.8996 23.25 24.8996H7.75002C7.06488 24.8996 6.4078 24.6373 5.92333 24.1703C5.43886 23.7033 5.16669 23.07 5.16669 22.4096Z" stroke="#8F8F8F" stroke-width="1.5" stroke-linejoin="round"/>
<path d="M15.5 12.4498C17.6401 12.4498 19.375 10.7776 19.375 8.71486C19.375 6.65211 17.6401 4.97992 15.5 4.97992C13.3599 4.97992 11.625 6.65211 11.625 8.71486C11.625 10.7776 13.3599 12.4498 15.5 12.4498Z" stroke="#8F8F8F" stroke-width="1.5"/>
</svg>
