<svg width="33" height="30" viewBox="0 0 33 30" fill="none" xmlns="http://www.w3.org/2000/svg">
<path d="M16.4478 24.8996C13.6547 24.8996 11.2205 24.0738 9.14513 22.4221C7.0698 20.7721 5.86851 18.693 5.54126 16.1847H6.93138C7.30538 18.3261 8.38293 20.1064 10.164 21.5257C11.9469 22.945 14.0415 23.6546 16.4478 23.6546C19.129 23.6546 21.4033 22.8089 23.2705 21.1174C25.1378 19.4258 26.0718 17.3666 26.0728 14.9398C26.0728 12.512 25.1387 10.4524 23.2705 8.76092C21.4023 7.06941 19.1281 6.22407 16.4478 6.2249C15.0251 6.2249 13.6877 6.49714 12.4355 7.04161C11.1843 7.58608 10.0797 8.33556 9.12176 9.29004H12.5331V10.535H6.82276V5.36337H8.19776V8.33639C9.26109 7.27981 10.5068 6.45647 11.935 5.86635C13.3632 5.27539 14.8674 4.97992 16.4478 4.97992C17.9722 4.97992 19.4013 5.23971 20.735 5.75928C22.0688 6.27885 23.2338 6.98973 24.2303 7.89193C25.2267 8.79412 26.0123 9.84945 26.587 11.0579C27.1608 12.2655 27.4478 13.5595 27.4478 14.9398C27.4478 16.32 27.1608 17.614 26.587 18.8216C26.0132 20.0292 25.2276 21.0846 24.2303 21.9876C23.2338 22.8898 22.0688 23.6007 20.735 24.1202C19.4013 24.6398 17.9722 24.8996 16.4478 24.8996ZM20.8519 19.7379L15.8386 15.1987V8.71486H17.2136V14.6808L21.8254 18.8565L20.8519 19.7379Z" fill="#8F8F8F"/>
</svg>
