<svg width="32" height="32" viewBox="0 0 32 32" fill="none" xmlns="http://www.w3.org/2000/svg">
<path fill-rule="evenodd" clip-rule="evenodd" d="M20 15.5C20 18.5376 17.5376 21 14.5 21C11.4624 21 9 18.5376 9 15.5C9 12.4624 11.4624 10 14.5 10C17.5376 10 20 12.4624 20 15.5ZM18.7291 20.4362C17.5923 21.411 16.1149 22 14.5 22C10.9101 22 8 19.0899 8 15.5C8 11.9101 10.9101 9 14.5 9C18.0899 9 21 11.9101 21 15.5C21 17.1149 20.411 18.5923 19.4362 19.7291L23.8536 24.1464L23.1464 24.8536L18.7291 20.4362Z" fill="white"/>
</svg>
